<?xml version="1.0" standalone="no"?>
<!DOCTYPE svg PUBLIC "-//W3C//DTD SVG 20010904//EN"
 "http://www.w3.org/TR/2001/REC-SVG-20010904/DTD/svg10.dtd">
<svg version="1.0" xmlns="http://www.w3.org/2000/svg"
 width="1024.000000pt" height="1024.000000pt" viewBox="0 0 1024.000000 1024.000000"
 preserveAspectRatio="xMidYMid meet">
<metadata>
Created by potrace 1.14, written by Peter Selinger 2001-2017
</metadata>
<g transform="translate(0.000000,1024.000000) scale(0.100000,-0.100000)"
fill="#000000" stroke="none">
<path d="M0 5120 l0 -5120 1198 0 1199 0 -1 1951 c-1 1073 2 1955 5 1961 4 7
349 10 1023 10 l1016 0 -102 121 c-56 67 -105 124 -108 127 -3 3 -30 34 -60
70 -30 36 -57 67 -60 70 -3 3 -41 48 -85 100 -44 52 -88 104 -98 115 -11 11
-88 101 -172 200 -84 99 -161 190 -171 201 -11 12 -35 41 -54 64 -19 23 -42
50 -50 59 -8 9 -53 61 -100 116 -47 55 -87 102 -90 105 -3 3 -41 48 -85 100
-44 52 -84 100 -90 106 -5 6 -30 35 -55 64 -25 29 -49 58 -55 64 -5 6 -46 54
-90 106 -44 52 -82 97 -85 100 -3 3 -30 34 -60 70 -30 36 -57 67 -60 70 -3 3
-27 32 -55 65 -27 33 -52 62 -55 65 -3 3 -30 34 -60 70 -30 35 -65 76 -77 90
-12 14 -31 36 -42 49 -12 13 -21 29 -22 35 0 6 -1 890 -1 1964 l-1 1952 -1199
0 -1198 0 0 -5120z"/>
<path d="M7555 10220 c-8 -9 -15 -22 -15 -28 0 -7 -4 -12 -10 -12 -5 0 -10 -4
-10 -9 0 -6 -13 -29 -28 -53 -31 -47 -175 -273 -233 -365 -106 -170 -217 -347
-264 -418 -28 -44 -62 -98 -75 -120 -13 -22 -27 -42 -30 -45 -4 -3 -22 -31
-41 -62 -32 -55 -132 -214 -225 -358 -23 -36 -74 -117 -114 -180 -40 -63 -87
-137 -105 -165 -17 -27 -47 -75 -67 -105 -19 -30 -67 -107 -107 -170 -41 -63
-110 -173 -154 -245 -45 -71 -84 -132 -87 -135 -3 -3 -10 -14 -17 -25 -7 -11
-24 -40 -39 -65 -15 -25 -55 -88 -89 -140 -34 -52 -88 -138 -121 -190 -32 -52
-69 -111 -82 -130 -12 -19 -27 -42 -32 -50 -5 -8 -21 -32 -35 -53 -13 -21 -32
-50 -40 -65 -9 -15 -23 -39 -33 -54 -9 -15 -107 -168 -217 -340 l-200 -313 0
-1202 -1 -1202 60 -96 c34 -52 133 -209 220 -347 88 -139 187 -296 221 -348
34 -52 131 -205 215 -340 85 -135 158 -246 162 -248 5 -2 8 -7 8 -12 0 -5 48
-85 108 -178 59 -93 123 -195 142 -226 19 -32 41 -64 48 -71 6 -8 12 -16 12
-19 0 -3 37 -63 82 -133 145 -228 162 -255 319 -503 84 -135 176 -280 204
-323 27 -42 73 -113 100 -157 28 -44 77 -123 110 -174 33 -51 152 -240 265
-419 l205 -326 1338 -1 1337 0 -23 38 c-14 20 -127 199 -252 397 -125 198
-242 383 -260 410 -18 28 -99 156 -180 285 -82 129 -167 264 -190 300 -23 36
-113 178 -200 315 -87 138 -172 273 -190 300 -18 28 -104 163 -190 300 -87
138 -177 279 -200 315 -23 36 -111 175 -196 310 -84 135 -157 247 -161 248 -5
2 -8 8 -8 13 0 4 -21 41 -46 81 -119 186 -163 255 -284 449 -23 37 -259 409
-355 559 -23 36 -61 97 -85 135 -25 39 -76 120 -115 181 -38 60 -74 118 -80
127 -5 9 -59 93 -118 187 l-109 171 61 97 c33 53 64 102 69 107 4 6 11 17 15
25 3 8 43 71 87 138 44 68 80 126 80 129 0 3 13 23 29 46 31 45 37 54 222 347
67 107 178 282 246 388 68 107 123 198 123 203 0 5 4 9 8 9 5 0 14 10 20 23
18 35 44 77 83 137 20 30 139 217 264 415 236 372 536 846 792 1249 48 77 97
154 108 172 11 18 132 210 269 426 138 216 281 443 319 503 38 61 84 133 102
160 17 28 73 115 123 195 51 80 95 150 99 156 5 5 13 19 20 30 6 10 32 52 57
92 l46 72 -1335 -1 c-1244 -1 -1335 -3 -1350 -19z"/>
</g>
</svg>
