<svg width="170" height="170" viewBox="0 0 170 170" fill="none" xmlns="http://www.w3.org/2000/svg">
<path d="M62.728 166.391C17.656 154.314 -9.18459 107.818 2.89394 62.74C14.9725 17.6623 61.4651 -9.18413 106.537 2.89288C151.609 14.9699 178.45 61.4659 166.371 106.544C154.293 151.621 107.8 178.468 62.728 166.391ZM105.987 4.94701C62.0495 -6.82595 16.7222 19.3475 4.94781 63.2903C-6.82663 107.233 19.3411 152.564 63.2784 164.337C107.216 176.11 152.543 149.936 164.317 105.993C176.092 62.0505 149.924 16.72 105.987 4.94701Z" fill="white"/>
<path d="M57.02 164.669C56.8146 164.614 56.6206 164.496 56.4753 164.319C54.0224 161.356 50.2473 153.981 52.4832 137.914C55.5859 115.634 59.7561 99.5574 69.0266 74.2021C87.5825 23.4351 97.425 10.7328 105.295 4.56909C106.952 3.27378 108.318 3.35345 109.863 3.87202C110.418 4.05931 110.718 4.66274 110.531 5.21799C110.344 5.77324 109.744 6.08041 109.185 5.88661C108.089 5.5213 107.535 5.51586 106.608 6.24183C98.9822 12.2123 89.3941 24.6636 71.0234 74.9243C61.8175 100.121 57.6659 116.087 54.5905 138.204C53.0396 149.352 54.3253 158.377 58.1151 162.964C58.4892 163.417 58.425 164.087 57.9725 164.462C57.6966 164.69 57.3383 164.754 57.02 164.669Z" fill="white"/>
<path d="M48.2091 161.075C48.132 161.054 48.0578 161.023 47.9849 160.987C41.7329 157.661 27.0857 149.867 25.2384 124.741C23.4322 100.161 30.5523 83.3441 40.8142 62.278C51.3714 40.6029 62.8152 25.5391 75.8048 16.2284C86.9958 8.20797 97.2699 5.93026 106.021 4.42781C107.891 4.10329 109.887 4.19226 112.304 4.70226C112.877 4.82279 113.248 5.38999 113.127 5.96313C113.007 6.53627 112.439 6.90718 111.866 6.78665C109.694 6.33104 108.005 6.24722 106.383 6.5282C87.3507 9.80015 65.1629 17.1471 42.7262 63.2141C32.6098 83.9835 25.5921 100.541 27.3582 124.594C29.1169 148.551 42.5359 155.691 48.9809 159.119C49.501 159.396 49.6978 160.037 49.4209 160.557C49.1864 161.001 48.6736 161.21 48.2063 161.085L48.2091 161.075Z" fill="white"/>
<path d="M18.8738 137.28C18.6325 137.216 18.4094 137.062 18.2611 136.835C17.8738 136.247 17.4801 135.663 17.0736 135.064C13.5534 129.861 9.56903 123.966 7.73677 111.108C4.37302 87.5135 9.08817 67.1848 22.1559 48.9564C53.341 5.44276 82.737 4.89826 106.355 4.45662C108.534 4.41327 111.969 5.295 114.998 6.06804C115.925 6.30542 116.79 6.52629 117.506 6.69048C118.076 6.82128 118.435 7.39087 118.304 7.96125C118.173 8.53164 117.604 8.8909 117.034 8.7601C116.303 8.59179 115.422 8.36679 114.469 8.12253C111.714 7.41728 108.285 6.53693 106.392 6.57479C83.2508 7.00637 54.4455 7.54401 23.8784 50.1886C11.1448 67.9505 6.55291 87.7784 9.8386 110.801C11.603 123.174 15.4465 128.855 18.8372 133.864C19.2474 134.469 19.65 135.061 20.041 135.656C20.3616 136.143 20.228 136.807 19.7352 137.126C19.4692 137.297 19.1603 137.341 18.8779 137.265L18.8738 137.28Z" fill="white"/>
<path d="M15.0037 38.9051C14.8599 38.8666 14.7193 38.7959 14.5934 38.6906C14.1446 38.3116 14.0875 37.6414 14.4665 37.1925C27.812 21.3778 43.9254 10.8016 62.3608 5.75156C80.5229 0.776913 96.5631 2.3449 106.823 4.53799C110.013 5.22218 122.73 9.31229 128.495 12.2604C129.017 12.5271 129.225 13.1715 128.958 13.6945C128.691 14.2174 128.047 14.4246 127.524 14.1579C122.007 11.3313 109.399 7.26493 106.375 6.61963C90.2437 3.17245 49.1531 -0.616489 16.0913 38.5635C15.8176 38.8865 15.3888 39.0083 15.0037 38.9051Z" fill="white"/>
<path d="M68.46 167.734C68.1365 167.647 67.8632 167.414 67.7386 167.078C67.5339 166.528 67.8137 165.915 68.3639 165.71C73.9383 163.637 79.5639 156.465 83.7964 146.03C92.1848 125.342 96.5778 109.44 101.205 83.0114C110.427 30.2939 108.349 14.7167 104.729 5.73827C104.289 4.64634 103.807 4.37386 102.675 4.14207C102.1 4.02667 101.728 3.4646 101.843 2.89009C101.959 2.31557 102.521 1.94329 103.095 2.05868C104.693 2.38212 105.915 2.99586 106.702 4.94606C110.441 14.2205 112.614 30.1423 103.297 83.3793C98.6423 109.971 94.2204 125.981 85.7675 146.827C79.6689 161.865 72.7139 166.358 69.1079 167.698C68.8938 167.779 68.6668 167.784 68.4614 167.729L68.46 167.734Z" fill="white"/>
<path d="M77.8925 169.028C77.4253 168.903 77.0909 168.467 77.1046 167.964C77.1248 167.375 77.6161 166.918 78.205 166.938C85.5004 167.192 100.692 167.718 114.193 147.85C127.749 127.903 129.95 110.055 131.574 87.0098C135.177 35.8963 119.635 18.4397 104.787 6.09518C103.522 5.04612 102.019 4.26904 99.9091 3.57721C99.3526 3.39505 99.0455 2.79539 99.229 2.23363C99.4112 1.677 100.011 1.36983 100.573 1.55335C102.915 2.31874 104.688 3.23963 106.151 4.45707C112.978 10.1338 120.737 17.2434 126.419 29.7848C133.012 44.3429 135.391 63.1105 133.696 87.1602C132.049 110.54 129.808 128.659 115.954 149.043C101.791 169.879 85.2146 169.306 78.1318 169.06C78.0493 169.059 77.9709 169.044 77.8939 169.023L77.8925 169.028Z" fill="white"/>
<path d="M115.195 163.09C114.912 163.014 114.662 162.82 114.522 162.54C114.261 162.014 114.471 161.376 114.992 161.114C115.628 160.795 116.273 160.483 116.931 160.164C122.373 157.516 128.542 154.519 136.255 144.691C150.612 126.395 156.549 106.928 154.402 85.1789C149.245 32.9511 124.573 18.0842 104.748 6.13966C103.128 5.16073 99.718 4.20848 96.9792 3.4416C96.0372 3.17818 95.1619 2.93264 94.4397 2.7116C93.8803 2.53972 93.5616 1.94244 93.7386 1.38443C93.9105 0.825053 94.5115 0.512743 95.0657 0.68325C95.7674 0.898791 96.6273 1.1402 97.5488 1.39812C100.558 2.24305 103.973 3.19668 105.84 4.32418C126.072 16.5154 151.256 31.6901 156.512 84.968C158.715 107.288 152.632 127.256 137.923 146.002C129.909 156.217 123.504 159.333 117.859 162.081C117.213 162.397 116.575 162.705 115.945 163.021C115.703 163.143 115.433 163.164 115.192 163.1L115.195 163.09Z" fill="white"/>
<path d="M167.729 79.8277C167.344 79.7245 167.033 79.4046 166.958 78.9881C157.922 28.5225 120.436 11.2623 104.742 6.18212C101.8 5.2287 88.8479 2.44618 82.6572 2.13589C82.071 2.10541 81.6217 1.60523 81.6471 1.0176C81.6776 0.431345 82.1777 -0.0180653 82.7653 0.00727672C89.2329 0.33125 102.292 3.1478 105.395 4.15551C115.371 7.38456 130.047 14.0468 143.293 27.4373C156.734 41.0285 165.4 58.2445 169.051 78.6132C169.154 79.1914 168.77 79.7433 168.192 79.8471C168.035 79.8767 167.878 79.8676 167.729 79.8277Z" fill="white"/>
<path d="M76.6116 114.575C30.7694 102.292 -2.09493 81.3167 1.78815 66.8249C1.93951 66.26 2.52547 65.9216 3.09028 66.073C3.65509 66.2243 3.99337 66.8103 3.84201 67.3752C2.22108 73.4246 8.95699 81.7022 22.319 90.082C36.2234 98.7998 55.6992 106.77 77.162 112.521C98.6249 118.272 119.477 121.107 135.877 120.51C151.639 119.934 161.611 116.133 163.232 110.084C163.383 109.519 163.969 109.18 164.534 109.332C165.099 109.483 165.437 110.069 165.286 110.634C161.403 125.126 122.454 126.859 76.6116 114.575Z" fill="white"/>
<path d="M85.8845 79.9686C43.0615 68.4942 12.2605 49.2661 15.7624 36.1968C15.9385 35.5395 16.2033 34.9004 16.5424 34.2922C16.8334 33.7813 17.4811 33.6026 17.9934 33.8884C18.5043 34.1794 18.6829 34.8273 18.397 35.3396C18.1444 35.7893 17.9456 36.2644 17.8163 36.7471C14.7299 48.2656 46.1535 67.1211 86.4349 77.9145C126.716 88.7079 163.356 88.0954 166.444 76.5718C166.551 76.1713 166.618 75.7597 166.638 75.3358C166.668 74.7495 167.168 74.3001 167.755 74.3306C168.341 74.361 168.79 74.8612 168.76 75.4475C168.728 76.017 168.639 76.5764 168.493 77.1208C164.991 90.1901 128.702 91.4416 85.8794 79.9672L85.8845 79.9686Z" fill="white"/>
<path d="M94.7666 46.8202C65.8431 39.0702 37.6251 24.7228 40.4638 14.1286C40.6922 13.2762 41.1223 12.4722 41.7392 11.7514C42.1233 11.3039 42.7921 11.2519 43.2395 11.636C43.6869 12.0201 43.7388 12.689 43.3548 13.1365C42.9457 13.6158 42.6636 14.1346 42.5177 14.679C40.594 21.8581 61.3512 35.665 95.317 44.7661C129.283 53.8672 154.161 52.2938 156.086 45.1095C156.232 44.5652 156.247 43.9748 156.132 43.3552C156.024 42.7756 156.403 42.2223 156.982 42.1134C157.562 42.0045 158.115 42.3839 158.224 42.9634C158.398 43.8962 158.368 44.8074 158.14 45.6599C155.301 56.254 123.69 54.5703 94.7666 46.8202Z" fill="white"/>
<path d="M101.669 20.3406C85.418 15.9862 69.7632 8.60466 71.2851 2.92501C71.5025 2.11364 72.044 1.42763 72.8915 0.87315C73.3843 0.553867 74.0409 0.691275 74.3601 1.18411C74.6793 1.67694 74.5368 2.33224 74.044 2.65152C73.6516 2.90414 73.4122 3.18126 73.3352 3.46883C72.5976 6.22136 83.2278 13.1922 102.216 18.28C121.204 23.3678 133.894 22.6511 134.633 19.8935C134.721 19.5648 134.62 19.1414 134.324 18.6438C134.024 18.1397 134.194 17.4861 134.698 17.1864C135.202 16.8866 135.855 17.0562 136.155 17.5603C136.749 18.5672 136.929 19.54 136.688 20.4387C135.166 26.1183 117.918 24.6835 101.667 20.329L101.669 20.3406Z" fill="white"/>
<path d="M68.9336 143.23C35.0551 134.153 7.45804 117.242 1.82151 102.109C1.61673 101.559 1.89656 100.946 2.44674 100.741C2.99693 100.536 3.60986 100.816 3.81464 101.366C9.22284 115.893 36.2268 132.265 69.484 141.176C102.741 150.088 134.302 149.413 146.254 139.538C146.706 139.164 147.377 139.228 147.751 139.681C148.125 140.133 148.061 140.804 147.609 141.178C135.156 151.464 102.807 152.307 68.9336 143.23Z" fill="white"/>
<path d="M64.0446 161.476C41.7294 155.497 21.3634 142.962 13.367 130.29C13.0543 129.793 13.2033 129.134 13.6999 128.821C14.1964 128.509 14.8554 128.658 15.1681 129.154C22.897 141.408 42.7573 153.571 64.595 159.422C86.4327 165.273 107.934 164.947 120.734 158.58C121.261 158.319 121.897 158.534 122.158 159.06C122.418 159.587 122.204 160.223 121.682 160.485C108.437 167.074 86.3533 167.459 64.0433 161.481L64.0446 161.476Z" fill="white"/>
</svg>
